<?xml version="1.0" encoding="UTF-8"?>
<svg width="40px" height="46px" viewBox="0 0 40 46" version="1.1" xmlns="http://www.w3.org/2000/svg" xmlns:xlink="http://www.w3.org/1999/xlink">
    <!-- Generator: Sketch 59.1 (86144) - https://sketch.com -->
    <title>character</title>
    <desc>Created with Sketch.</desc>
    <g id="Page-1" stroke="none" stroke-width="1" fill="none" fill-rule="evenodd">
        <g id="character" fill-rule="nonzero">
            <path d="M5.36133603,15.6449146 C2.46322843,14.3684538 0.59168351,11.4389659 0.59168351,8.34503852 C0.59168351,3.99314985 4.2292034,0.45194732 8.69945933,0.45194732 C10.1280326,0.45194732 11.5291575,0.81741386 12.7563032,1.50970373 C13.5307647,1.94752372 13.795112,2.91237182 13.3453837,3.66797091 C12.8973447,4.41863672 11.9028753,4.67598444 11.1284138,4.24145324 C10.3970249,3.8278882 9.55626541,3.6091838 8.69945933,3.6091838 C6.01713683,3.6091838 3.83479384,5.73374085 3.83479384,8.34503852 C3.83479384,10.2027927 4.95890323,12.0021708 6.69785218,12.7684584 C7.51327487,13.1273474 7.8760133,14.0634187 7.50694064,14.8572498 C7.13617875,15.6551921 6.17211362,16.0021591 5.36133603,15.6449146 Z" id="Path" fill="#FF9E4E"></path>
            <path d="M19.2652027,1.34765625 L19.2652027,10.78125 L10.7136824,10.78125 L10.7136824,1.34765625 C10.7136824,0.592758156 11.3405712,0 12.1389358,0 L17.8399493,0 C18.6383139,0 19.2652027,0.592758156 19.2652027,1.34765625 Z" id="Path" fill="#F8E0C3"></path>
            <path d="M19.2652027,10.78125 L14.9894426,10.78125 L14.9894426,0 L17.8399493,0 C18.6383139,0 19.2652027,0.592758156 19.2652027,1.34765625 L19.2652027,10.78125 Z" id="Path" fill="#FFCA9C"></path>
            <polygon id="Path" fill="#FFCA9C" points="27.816723 16.2617188 23.5409628 18.9570313 6.1814509 18.9570313 2.16216216 16.2617188 10.7136824 8.0859375 19.2652027 8.0859375"></polygon>
            <polygon id="Path" fill="#FF9E4E" points="23.5409628 18.9570313 14.9894426 18.9570313 14.9894426 8.0859375 19.2652027 8.0859375 27.816723 16.2617188"></polygon>
            <path d="M27.816723,35.1289063 L27.816723,44.6523438 C27.816723,45.4068909 27.1898342,46 26.3914696,46 L3.58741554,46 C2.78905093,46 2.16216216,45.4068909 2.16216216,44.6523438 L2.16216216,35.1289063 L3.58741554,32.4335938 L26.3914696,32.4335938 L27.816723,35.1289063 Z" id="Path" fill="#FFCA9C"></path>
            <path d="M26.3914696,32.4335938 L27.816723,35.1289063 L27.816723,44.6523438 C27.816723,45.4068909 27.1898342,46 26.3914696,46 L14.9894426,46 L14.9894426,32.4335938 L26.3914696,32.4335938 Z" id="Path" fill="#FF9E4E"></path>
            <path d="M27.816723,16.2617188 L27.816723,35.1289063 L26.3914696,35.1289063 C24.0253263,35.1289063 22.1157095,36.934555 22.1157095,39.171875 C22.1157095,39.9264222 21.4888207,40.5195313 20.6904561,40.5195313 L9.28842905,40.5195313 C8.49006444,40.5195313 7.86317568,39.9264222 7.86317568,39.171875 C7.86317568,36.934555 5.95355887,35.1289063 3.58741554,35.1289063 L2.16216216,35.1289063 L2.16216216,16.2617188 L27.816723,16.2617188 Z" id="Path" fill="#F8E0C3"></path>
            <path d="M27.816723,16.2617188 L27.816723,35.1289063 L26.3914696,35.1289063 C24.0253263,35.1289063 22.1157095,36.934555 22.1157095,39.171875 C22.1157095,39.9264222 21.4888207,40.5195313 20.6904561,40.5195313 L14.9894426,40.5195313 L14.9894426,16.2617188 L27.816723,16.2617188 Z" id="Path" fill="#FFCA9C"></path>
            <path d="M12.6326014,23.0706771 C12.6326014,23.8540846 11.961117,24.4890104 11.1326014,24.4890104 C10.3040858,24.4890104 9.63260135,23.8540846 9.63260135,23.0706771 C9.63260135,22.2872696 10.3040858,21.6523438 11.1326014,21.6523438 C11.961117,21.6523438 12.6326014,22.2872696 12.6326014,23.0706771 Z" id="Path" fill="#98441F"></path>
            <path d="M20.495777,23.0706771 C20.495777,23.8540846 19.8242926,24.4890104 18.995777,24.4890104 C18.1672614,24.4890104 17.495777,23.8540846 17.495777,23.0706771 C17.495777,22.2872696 18.1672614,21.6523438 18.995777,21.6523438 C19.8242926,21.6523438 20.495777,22.2872696 20.495777,23.0706771 Z" id="Path" fill="#98441F"></path>
            <path d="M29.8688651,26.0207465 L17.7260033,26.0207465 C16.6711673,26.0207465 15.7306485,26.3709968 14.9894426,27.0181525 C14.1057113,27.6919806 13.5641892,28.7697547 13.5641892,29.9559729 C13.5641892,31.0611212 14.0485526,32.1122229 14.9037046,32.8397468 C14.932284,32.8667701 14.9608633,32.8937934 14.9894426,32.8937934 C15.7306485,33.5405982 16.7283259,33.8911994 17.7260033,33.8911994 C17.8399493,33.8911994 17.9538954,33.8911994 18.0682126,33.8641761 L30.1828663,32.9208167 C32.0353246,32.7590278 33.5177365,31.2495826 33.5177365,29.4706062 C33.5177365,27.557215 31.8927992,26.0207465 29.8688651,26.0207465 L29.8688651,26.0207465 Z" id="Path" fill="#FFCA9C"></path>
            <path d="M39.8543074,29.4706062 C39.8543074,31.2495826 37.8649191,32.7590278 35.3789306,32.9208167 L19.1211344,33.8641761 C18.9677214,33.8908484 18.8148064,33.8908484 18.6618914,33.8908484 C17.3230141,33.8908484 15.9841367,33.5405982 14.9894426,32.8937934 L14.9894426,27.0178016 C15.9841367,26.3709968 17.2463076,26.0207465 18.6618914,26.0207465 L34.9575428,26.0207465 C37.6736509,26.0207465 39.8543074,27.557215 39.8543074,29.4706062 Z" id="Path" fill="#FF9E4E"></path>
        </g>
    </g>
</svg>