<?xml version="1.0" encoding="UTF-8"?>
<svg width="30px" height="30px" viewBox="0 0 30 30" version="1.1" xmlns="http://www.w3.org/2000/svg" xmlns:xlink="http://www.w3.org/1999/xlink">
    <!-- Generator: Sketch 59.1 (86144) - https://sketch.com -->
    <title>new-tab</title>
    <desc>Created with Sketch.</desc>
    <g id="Page-1" stroke="none" stroke-width="1" fill="none" fill-rule="evenodd">
        <g id="new-tab" fill="#A1E6FA" fill-rule="nonzero">
            <path d="M24,30 L2,30 C0.8954305,30 0,29.1045695 0,28 L0,6 C0,4.8954305 0.8954305,4 2,4 L12,4 L12,7.03419254 L2.97342387,7.03419254 L2.97342387,26.9952286 L23.0121408,26.9952286 L23.0121408,18 L26,18 L26,28 C26,29.1045695 25.1045695,30 24,30 Z" id="Path"></path>
            <path d="M12.9638141,0 C12.3365591,0 11.8280684,0.508490682 11.8280684,1.13574573 C11.8280684,1.76300077 12.3365591,2.27149145 12.9638141,2.27149145 L26.1271071,2.27149145 L10.3970288,18.0015698 C10.072914,18.2791345 9.93173424,18.7149526 10.0315343,19.1298411 C10.1313343,19.5447297 10.4552703,19.8686657 10.8701589,19.9684657 C11.2850474,20.0682658 11.7208655,19.927086 11.9984302,19.6029712 L27.7285085,3.87289293 L27.7285085,17.0361859 C27.7285085,17.6634409 28.2369992,18.1719316 28.8642543,18.1719316 C29.4915093,18.1719316 30,17.6634409 30,17.0361859 L30,0 L12.9638141,0 Z" id="Path"></path>
        </g>
    </g>
</svg>